# xmcd
# 
# Track frame offsets:
#     150
#     18165
#     31505
# 
# Disc length: 668
# 
# Revision: 7
# Processed by: cddbd v1.5.2PL0 Copyright (c) Steve Scherf et al.
# Submitted via: fre:ac v1.0.27
# 
DISCID=10029a03
DTITLE=ACDC - Single Safe in new York City
DYEAR=2001
DGENRE=Rock
TTITLE0=Safe in new york city
TTITLE1=Cyberspace
TTITLE2=Back in black
EXTD=ACDC
EXTT0=
EXTT1=
EXTT2=Acdc
PLAYORDER=
